<svg id="Layer_1" data-name="Layer 1" xmlns="http://www.w3.org/2000/svg" xmlns:xlink="http://www.w3.org/1999/xlink" viewBox="0 0 550.37 845"><defs><style>.cls-1{fill:#cd2689;stroke:#cd2689;}.cls-1,.cls-2,.cls-3{stroke-miterlimit:10;}.cls-2{fill:#66beeb;stroke:#66beeb;stroke-width:0.75px;}.cls-3{fill:none;stroke-width:40px;stroke:url(#linear-gradient);}</style><linearGradient id="linear-gradient" x1="606.12" y1="753.43" x2="-55.75" y2="91.57" gradientUnits="userSpaceOnUse"><stop offset="0" stop-color="#66cadb"/><stop offset="0.09" stop-color="#84c7dd"/><stop offset="0.2" stop-color="#9fc4de"/><stop offset="0.3" stop-color="#b2c2df"/><stop offset="0.41" stop-color="#bdc0e0"/><stop offset="0.52" stop-color="#c1c0e0"/><stop offset="1" stop-color="#e6bcd9"/></linearGradient></defs><polygon class="cls-1" points="276.58 306.34 221.01 528.56 261.5 538.66 317.06 316.43 276.58 306.34"/><polygon class="cls-1" points="163.65 333.41 74.55 422.5 163.65 511.58 191.44 483.8 130.11 422.5 191.44 361.2 163.65 333.41"/><polygon class="cls-1" points="374.42 333.41 346.64 361.2 407.96 422.5 346.64 483.8 374.42 511.58 463.53 422.5 374.42 333.41"/><rect class="cls-2" x="73.14" y="714.59" width="231.4" height="39.81"/><rect class="cls-2" x="73.14" y="606.59" width="356.1" height="39.81"/><rect class="cls-2" x="221.14" y="209.59" width="231.4" height="39.81"/><rect class="cls-2" x="74.14" y="101.59" width="272.4" height="39.81"/><rect class="cls-3" x="20" y="20" width="510.37" height="805" rx="41.14"/></svg>