<svg id="Layer_1" data-name="Layer 1" xmlns="http://www.w3.org/2000/svg" xmlns:xlink="http://www.w3.org/1999/xlink" viewBox="0 0 550.37 845"><defs><style>.cls-1{fill:#cd2689;}.cls-2{fill:#66beeb;stroke:#66beeb;}.cls-2,.cls-3{stroke-miterlimit:10;}.cls-3{fill:none;stroke-width:40px;stroke:url(#linear-gradient);}</style><linearGradient id="linear-gradient" x1="606.12" y1="753.43" x2="-55.75" y2="91.57" gradientUnits="userSpaceOnUse"><stop offset="0" stop-color="#66cadb"/><stop offset="0.09" stop-color="#84c7dd"/><stop offset="0.2" stop-color="#9fc4de"/><stop offset="0.3" stop-color="#b2c2df"/><stop offset="0.41" stop-color="#bdc0e0"/><stop offset="0.52" stop-color="#c1c0e0"/><stop offset="1" stop-color="#e6bcd9"/></linearGradient></defs><path class="cls-1" d="M268,742.46V795h52.54l155-155L423,587.42Zm248.07-143a14,14,0,0,0,0-19.82l-32.72-32.72a14,14,0,0,0-19.82,0l-25.64,25.64,52.54,52.54Z" transform="translate(-22.45 1.56)"/><rect class="cls-2" x="91.59" y="231.79" width="371.95" height="39.81"/><rect class="cls-2" x="91.59" y="339.79" width="371.95" height="39.81"/><rect class="cls-2" x="89.59" y="447.79" width="243.95" height="39.81"/><rect class="cls-2" x="89.59" y="555.79" width="132.95" height="39.81"/><rect class="cls-2" x="91.59" y="123.79" width="175.95" height="39.81"/><rect class="cls-2" x="287.59" y="123.79" width="175.95" height="39.81"/><rect class="cls-3" x="20" y="20" width="510.37" height="805" rx="41.14"/></svg>