<svg id="Layer_1" data-name="Layer 1" xmlns="http://www.w3.org/2000/svg" xmlns:xlink="http://www.w3.org/1999/xlink" viewBox="0 0 550.37 845"><defs><style>.cls-1{fill:#66beeb;stroke:#66beeb;stroke-width:0.75px;}.cls-1,.cls-3{stroke-miterlimit:10;}.cls-2{fill:#cd2689;}.cls-3{fill:none;stroke-width:40px;stroke:url(#linear-gradient);}</style><linearGradient id="linear-gradient" x1="606.12" y1="753.43" x2="-55.75" y2="91.57" gradientUnits="userSpaceOnUse"><stop offset="0" stop-color="#66cadb"/><stop offset="0.09" stop-color="#84c7dd"/><stop offset="0.2" stop-color="#9fc4de"/><stop offset="0.3" stop-color="#b2c2df"/><stop offset="0.41" stop-color="#bdc0e0"/><stop offset="0.52" stop-color="#c1c0e0"/><stop offset="1" stop-color="#e6bcd9"/></linearGradient></defs><rect class="cls-1" x="85.96" y="691.06" width="333.58" height="39.81"/><rect class="cls-1" x="85.96" y="583.06" width="382.58" height="39.81"/><path class="cls-2" d="M403.52,136.83,309.64,191l92.84,53.6,93.91,54.23a198.6,198.6,0,0,0-92.87-162" transform="translate(-22.45 1.56)"/><path class="cls-2" d="M402.48,258.46V474.14a198.71,198.71,0,0,0,93.85-161.49l-93.85-54.19" transform="translate(-22.45 1.56)"/><path class="cls-2" d="M390.49,372.57l-92.84,53.6h0l-94,54.26a199.07,199.07,0,0,0,186.83.58V372.57" transform="translate(-22.45 1.56)"/><path class="cls-2" d="M285.63,419.25l-92.79-53.57-94-54.22a198.63,198.63,0,0,0,92.89,162l93.86-54.21" transform="translate(-22.45 1.56)"/><path class="cls-2" d="M192.84,351.84V136.16a198.6,198.6,0,0,0-93.9,161.49l93.9,54.19" transform="translate(-22.45 1.56)"/><path class="cls-2" d="M297.65,106.31a197.68,197.68,0,0,0-92.84,23V237.7l92.84-53.6,94-54.23a198,198,0,0,0-94-23.56" transform="translate(-22.45 1.56)"/><rect class="cls-3" x="20" y="20" width="510.37" height="805" rx="41.14"/></svg>