<svg xmlns="http://www.w3.org/2000/svg" id="Layer_1" data-name="Layer 1" viewBox="0 -0.01 1071 1070.03"><defs><style>.cls-1{fill:#fefefe}.cls-2{fill:#676767}.cls-4{fill:#979797}.cls-5{fill:#555}.cls-6{fill:#191919}.cls-7{fill:#3c3c3c}.cls-8{fill:#686868}.cls-9{fill:#444}.cls-12{fill:#131313}.cls-13{fill:#5f5f5f}.cls-16{fill:#5e5e5e}.cls-20{fill:#323232}.cls-24{fill:#353535}.cls-31{fill:#636363}</style></defs><path class="cls-1" d="M2854.72 3717q255.54 0 511.06-.07c3.24 0 4.22.51 4.22 4q-.16 530.84 0 1061.66c0 3.65-.73 4.37-4.37 4.37q-531.06-.15-1062.12 0c-4 0-4.51-1.08-4.51-4.69q.15-258 .09-516a.88.88 0 0 1 1.27.19c1.55 4.3 1.22 8.87 1.55 13.28 4.14 55.26 20.17 106.89 46.87 155.32 1.88 3.42 3.73 6.84 5.78 10.15 1.52 2.46 2.76 4.9 2.19 8-.47 2.52 1.44 4.49 2.17 6.74a5.47 5.47 0 0 1 .24 2.05c-.56 3.6 1.11 6.75 2.1 10a375.21 375.21 0 0 0 36.74 81.16c1.68 2.82 3.94 5.28 5.29 8.31a408.5 408.5 0 0 0 39.27 51.31 392.12 392.12 0 0 0 77.55 66.45 368.72 368.72 0 0 0 114 49.55c2.89.71 4.66 2.47 6.66 4.23 9.46 4.69 18.14 10.74 27.76 15.2A400.75 400.75 0 0 0 2773 4780.2c1 .17 2.09.15 3.13.27a8.27 8.27 0 0 1 1.39.25c1.78.68 3.7.44 5.54.77 7.06 1.45 14.27 1.72 21.41 2.24a398.5 398.5 0 0 0 62.28-.5 382.15 382.15 0 0 0 214.34-89.07 382.71 382.71 0 0 0 134.59-310.31 368.2 368.2 0 0 0-16.53-93.07c-3.3-10.58-6.79-21.1-11-31.37a42.29 42.29 0 0 0-3.73-7.65c-3.11-7.42-6.15-14.86-9.8-22.08a374.94 374.94 0 0 0-54.49-79.89A393 393 0 0 0 3022 4070a380.79 380.79 0 0 0-96.72-39.05 8.67 8.67 0 0 0-.88-.21c-1.57-.25-3.59-1.19-4.37.81s1.35 2.78 2.68 3.56a444 444 0 0 1 41 27.42 318.31 318.31 0 0 1 36 32.25 386 386 0 0 1 51.33 67.67 7.94 7.94 0 0 1 1.42 4.19c-.9 4.31 1.11 8.21 1.78 12.29 1.46 8.83 3.28 17.61 4 26.55 1.3 19.68 1.44 39.41.84 59.09a337.11 337.11 0 0 1-10.73 73c-.14.54-.6 1-.4 1.62a2.46 2.46 0 0 1 1.39-1.06c2.73 2.62.86 4.92-.5 7.26a15.41 15.41 0 0 0-5.62 5.55 74.34 74.34 0 0 1-8.11 11.21c-5.85 6.61-10.91 13.84-16.6 20.57a420.61 420.61 0 0 1-39.69 40.64c-18.84 17-39.72 31.13-61.05 44.69a30.94 30.94 0 0 1-3.19 1.64c-10.31 3.36-21 4.7-31.68 6.21a351.46 351.46 0 0 1-57.24 3.81 400.19 400.19 0 0 1-70.38-7.68 32.59 32.59 0 0 1-11.4-5.1c-18.29-12-36.57-24-52.86-38.68a378.25 378.25 0 0 1-39-40.84 386.62 386.62 0 0 1-31.32-43.8 27 27 0 0 1-3.59-7.71 500.48 500.48 0 0 1-8.86-51.57c-.49-4.14-.85-8.35-1-12.48-.27-10.75-1.66-21.47-1.07-32.24 1.13-20.86 2.56-41.68 6.68-62.22.93-4.66 1.15-9.53 3.91-13.67 5.1-6.84 9.23-14.33 14-21.39a415.37 415.37 0 0 1 36.21-45.68 359.71 359.71 0 0 1 66.75-57 375.18 375.18 0 0 1 134.63-56.35 379.28 379.28 0 0 1 54.21-6.94c9.74-.57 19.45-.83 29.16-.64a389.49 389.49 0 0 1 63.26 6.49 370.36 370.36 0 0 1 106.12 36.65 391.17 391.17 0 0 1 68.41 46c8.86 7.41 17.5 15.08 25.54 23.28a393.18 393.18 0 0 1 47.86 58.72 378.57 378.57 0 0 1 56.47 139.79 360.44 360.44 0 0 1 5 39.11 438.08 438.08 0 0 1 .53 50.72 330.77 330.77 0 0 1-11.65 73.84 3.55 3.55 0 0 1-1.29 2.22 370 370 0 0 0 30.15-61.4 383 383 0 0 0-17.51-315.14c-4.35-8.36-9.18-16.46-13.95-24.59-.91-2.73.25-3.78 2.86-3.6-1.67-1.67-1.83-4-2.44-6.14a386.7 386.7 0 0 0-49.43-106.83c-17.59-26.67-38.55-50.47-62-72a367.15 367.15 0 0 0-86.82-59.43 385.23 385.23 0 0 0-95-32.38c-2-.41-4.62.08-6-2.29 1-1.87 2.89-1.47 4.54-1.65 2.49-.05 4.82.84 7.23 1.23 1.8.75 3.83.36 5.57 1.21-7.94-4.14-15.87-8.29-23.9-12.25a374.38 374.38 0 0 0-106.48-33.73 321.63 321.63 0 0 0-40.94-4.43 5.32 5.32 0 0 1-3-.78.9.9 0 0 1-.14-1.34zM2299.09 4237.59q0-258.27-.09-516.52c0-3.37.76-4.13 4.13-4.13q257.37.14 514.73.08a.9.9 0 0 1-.2 1.28c-4.88 1.69-10 1.08-15 1.51a376.08 376.08 0 0 0-117.54 29.77 396.54 396.54 0 0 0-47.33 24.46c-1.74 1.05-3.5 2.52-5.78 1.23a2.11 2.11 0 0 1-.71-1.1c-.26-.33.33-1.24-.15-1.08-18 5.91-36.13 11.56-53.56 19.23a395.33 395.33 0 0 0-69.3 39.38 382.61 382.61 0 0 0-45 37.64 392.82 392.82 0 0 0-45.4 52.46c-.43.6-.73 1.3-1.12 1.94a361.57 361.57 0 0 0-34.81 60.67 385.43 385.43 0 0 0-24.3 70.8 174.67 174.67 0 0 0-3.56 17.13 6.77 6.77 0 0 1-1.87 4.46c-1.21.12-1.55-.74-1.86-1.64-.39-5 1-9.65 2.32-14.42-.49 1.13-.66 2.43-1.89 3.05-3 .66-4.12 3.17-5.41 5.56a369.9 369.9 0 0 0-19.15 42.56 34.26 34.26 0 0 0-2.15 5.55c-1.81 5.26-3.57 10.52-5.2 15.84a391 391 0 0 0-15.86 78.17c-.7 7.59-1.58 15.17-1.77 22.81a5.82 5.82 0 0 1-.77 3 1 1 0 0 1-1.4.31z" transform="translate(-2299 -3716.94)"/><path class="cls-2" d="M2631.83 3774.49c1.8 1.63 3-.11 4.23-.88a384.9 384.9 0 0 1 119.74-48 357.35 357.35 0 0 1 61.81-7.93c4.85-.75 9.8.52 14.64-.67h8.09c4.83 1.19 9.77-.09 14.62.68 63.41 3 122.45 20.69 178.27 52.91-2.46-.15-3.9-.21-5.35-.32s-3 .12-4.25-1a223.58 223.58 0 0 0-34.15-17.6 396.11 396.11 0 0 0-99.28-27.68c-12.14-1.7-24.37-2.65-36.63-3.25-7.47-.37-14.93-1-22.42-.78-51.77 1.39-101.58 11.6-149 32.85a377 377 0 0 0-150 119.81 15 15 0 0 1-1.62 2.14c-1.82 1.7-3.06 6.2-5.57 4.34-2.15-1.59 1.26-4.68 2.74-6.7a414 414 0 0 1 36-43 379.6 379.6 0 0 1 61.63-52c2.03-1.31 3.87-3.02 6.5-2.92z" transform="translate(-2299 -3716.94)"/><path d="M2299.09 4237.59a.59.59 0 0 1 .72-.1c1.34 1 1.48 2.51 1.49 4q.07 10.45 0 20.91c0 1.49-.14 3-1.46 4h-.38l-.37-.11z" transform="translate(-2299 -3716.94)" style="fill:#b4b4b4"/><path class="cls-4" d="M2855 3717.7c-4.88 0-9.81.81-14.62-.68h14.38a1.63 1.63 0 0 0 .24.68zM2832.25 3717c-4.83 1.5-9.75.69-14.64.67a2 2 0 0 0 .25-.67z" transform="translate(-2299 -3716.94)"/><path d="M2631.83 3774.49a386 386 0 0 0-106.35 103.22 2.14 2.14 0 0 0-.27 1.9 27.22 27.22 0 0 0 2.12-2.32q58.55-81.2 149.34-123.35a371.09 371.09 0 0 1 100.4-30.49c14.44-2.24 29-3.28 43.67-4.15a337.81 337.81 0 0 1 39.88.44 377.43 377.43 0 0 1 83.6 14.64c25 7.29 49.34 16.43 72.16 29.22 2.61 1.46 5.25 2.87 7.79 4.43 2 1.26-.47.79-.54 1.27l-6.89-1.16c-1.64-.74-3.44 0-5.11-.54a112.13 112.13 0 0 0-20.71-4.81 238.91 238.91 0 0 0-26.18-2.71c-4.95-1.4-10.08-1-15.12-1.28a313.12 313.12 0 0 0-35.86.63 366.53 366.53 0 0 0-55.5 7.91 383.43 383.43 0 0 0-88.38 31.23 362.77 362.77 0 0 0-35.4 20.18 100.94 100.94 0 0 0-9.21 6.14c-1.92 1.49-4 2.72-5.95 4.22 2-1.49 4.16-2.77 6.13-4.33 3-2.23 6.13-4.2 9.31-6.14a375.25 375.25 0 0 1 88.55-41.79 393.2 393.2 0 0 1 61.25-14.19c22.67-3.46 45.43-3.85 68.26-3.72 1 0 2.06.37 3.12.33 13.3.75 26.49 2.43 39.69 4.1.85.11 1.36.45 1.34 1.37-1.89 1.68-4.22 1.31-6.35 1-6.88-.88-13.77-1.59-20.69-1.84a24.34 24.34 0 0 0-6.65-.81q-20.22-.47-40.4.78c-26.12 1.62-51.93 5.63-74.81 12a388.19 388.19 0 0 1 68.27-11.4c13.31-1 26.6-1.24 39.9-1a327.06 327.06 0 0 1 56 6.26 403.7 403.7 0 0 1 71.19 20.46 379.76 379.76 0 0 1 76.18 40.54 390.62 390.62 0 0 1 64.74 56.41 379.44 379.44 0 0 1 46.64 62.33 371.11 371.11 0 0 1 37.11 82.28c.5 1.63 2.2 3.95.49 4.88-2.19 1.2-3.1-1.66-4.05-3.13-4.5-7-9.41-13.73-12.46-17.8 4.52 5.66 10.15 14.5 16 23.19a6.47 6.47 0 0 1 .92 2c.19.73.4 1.56-.28 2.08-.94.73-1.67 0-2.29-.64a26.71 26.71 0 0 1-3.19-4.33c-19.89-28.94-43.75-54.22-70.52-76.85-7.18-6.08-14.64-11.78-22.26-17.27-2.27-1.68-4.55-3.33-7.47-5.14 2.66 1.78 4.82 3.2 6.9 4.74a370.28 370.28 0 0 1 56.21 49.13 336.94 336.94 0 0 1 44.67 58.83 380 380 0 0 1 39.73 86.64 365.54 365.54 0 0 1 13.21 57.85 378.4 378.4 0 0 1 4.32 60.68 415.39 415.39 0 0 1-4.25 52.21 389.1 389.1 0 0 1-25.63 93 322.31 322.31 0 0 1-18 37.12c-.7 1.23-1.28 3.23-3.15 2.42-1.37-.58-.95-2.27-.64-3.63a342 342 0 0 0 6.58-37.81c1-8.43 1.88-16.89 2-25.4.23-11.52.58-23 .12-34.55a391.31 391.31 0 0 0-5.26-49.73 361.73 361.73 0 0 0-15.46-59.58 373.07 373.07 0 0 0-59-108.09 384.29 384.29 0 0 0-102.95-91.57 370.83 370.83 0 0 0-80.45-36.95 391.77 391.77 0 0 0-73-15.59 369.4 369.4 0 0 0-60-2.39c-41.84 1.91-82.47 10-121.57 25.43a393.89 393.89 0 0 0-75.66 39.69 364 364 0 0 0-60.57 51 371.41 371.41 0 0 0-44.57 56.65c-.79 1.24-1.24 2.77-2.71 3.49-2.56-.33-2.07-2.21-1.64-3.7 3-10.31 6-20.63 10.74-30.33 2.16-4.42 3.6-9.15 5.61-12.71.48-1.36-.64-1.09-.05-1 .26 0 .36.16.27.37-3.79 8.45-7.5 16.94-11 25.5-1.67 4-2.49 8.3-4.17 12.31-.5 1.19-.76 3.28-2.2 2.89-2-.53-.86-2.52-.5-3.79a381.86 381.86 0 0 1 12.48-36.5c3.55-8.88 7.36-17.65 11.63-26.2a341.44 341.44 0 0 0-24.1 62.92 192.79 192.79 0 0 0-5.32 23.63 352.57 352.57 0 0 0-6.45 39.17 329.32 329.32 0 0 0-2.47 47.78 361 361 0 0 0 3.26 41.89c1.76 12.09 3.57 24.14 6.38 36a30.87 30.87 0 0 0 2 5.85c6.71 13.28 15.44 25.26 24.34 37.09 25.9 34.44 56.5 63.87 93.3 86.59a55.56 55.56 0 0 1 5.83 4.16c8.61 7 19.24 7.65 29.49 9.31a371.05 371.05 0 0 0 141.95-4.48c.58-.13 1.15-.31 1.73-.47 5.46-1.35 10-4.56 14.6-7.5a374.48 374.48 0 0 0 71.79-58.43c6-6.28 11.34-13.07 17.23-19.42 6.31-5.53 10.9-12.52 15.93-19.11 4.68-6.13 8.93-12.6 13.41-18.88a17 17 0 0 0 2.08-7c-.86-2.08-.28-4.12.21-6.15 8.12-33.83 10.13-68.19 9-102.82-.11-3.43-.47-6.85-.4-10.29a266.23 266.23 0 0 0-6.53-49c-.34-1.46.11-3-.53-4.41-23.52-39.21-52.38-73.82-88.44-102.18-9.41-8.6-20.09-15.44-30.63-22.49-3.24-2.17-6.48-4.33-9.78-6.4-.9-.56-2-1.37-1.66-2.43.51-1.51 2-.93 3.1-.65 11.93 3 23.71 6.43 35.29 10.57a386.41 386.41 0 0 1 124.77 73.34c8.71 7.6 16.74 15.86 24.81 24.09a357.56 357.56 0 0 1 62.53 86.79 414.58 414.58 0 0 1 19.54 43.9 385.24 385.24 0 0 1 21.15 86.22 216 216 0 0 1 2.25 29.52c-.06 6.14 1.09 12.2.94 18.37-1.13 47.57-9.36 93.7-26.85 138.13a379.44 379.44 0 0 1-170.89 194.47c-38.88 21.24-80 35.75-123.84 42.61a339.84 339.84 0 0 1-44.17 4.35c-9.11.23-18.24 1.08-27.35.54-16-1-31.94-1.78-47.76-4.31a333.37 333.37 0 0 1-50.66-11.38 383.89 383.89 0 0 1-67.38-26.87c-1.78-.93-4.06-1.41-4.5-3.93 1.2-1.89 2.92-1.06 4.46-.78 12.9 2.32 25.81 4.61 38.87 5.89a19.62 19.62 0 0 0 4.26.28c.59-.1-.21-1 0-.48.09.19 0 .31-.27.31-7.3-.13-14.46-1.43-21.66-2.43-9.16-1.27-18.19-3.2-27.29-4.77-1.35-.32-2.55-.82-2.93-2.35 1.14-2.11 3.08-1.6 4.76-1.22a271.53 271.53 0 0 0 39.91 5.43c14.43 1 28.92 1.84 43.42.73 6.23-.48 12.48-.44 18.73-.85 17.32-1.14 34.34-4 51.29-7.49 17.29-3.54 34-9 50.68-14.68 2-1.16 4.23-1.63 6.34-2.48-1.92 1-4.23 1.08-6 2.38-23.86 8.38-48.14 15.12-73.18 18.9q-15 2.26-30.22 3.35a389.44 389.44 0 0 1-49.26.66c-46.72-2.45-91.29-13.9-134-32.91a367.91 367.91 0 0 1-95.14-61.25 395.52 395.52 0 0 1-67.52-77.19 26.2 26.2 0 0 0-2.14-2.88c-5.39-7.72-9.78-16-14.38-24.22-10.78-19.18-19.25-39.4-26.62-60.1-1.6-4.48-3.24-9-3.72-13.77 2-2.2 2.67 0 3.45 1.18 5.7 8.41 11.49 16.75 17.6 24.87 1.05 1.4 2.47 2.5 3 3.72-6.75-8.32-13-17.5-19.26-26.73-1.08-1.6-3.53-4-1.45-5.36s3.16 1.93 4.28 3.48a403 403 0 0 0 50.18 57.35c18 17 37.28 32.12 52.5 42-12.43-7.71-29.21-20.56-44.84-34.77a362.5 362.5 0 0 1-49.21-54 392 392 0 0 1-48.21-86.49 378.28 378.28 0 0 1-24.25-93.68 360.73 360.73 0 0 1-2.84-61.8c1.5-31.33 6-62.24 14.88-92.41a46.63 46.63 0 0 0 1.13-4.81c4-14.91 9.59-29.21 15.83-43.29 4.13-9.31 8.83-18.33 13.33-27.46.85-1.72 1.51-3.64 3.59-4.38l3.47-5.58c-1 6.27-1.91 11.61-2.79 16.94.5 9.12-2 18-2.5 27-.4 7.12-.87 14.26-1.48 21.38-.31 13.88-.39 27.77.6 41.62q1.52 21.12 5.07 42.05a380.33 380.33 0 0 0 22 77.32c1.48 3.73 3.19 7.39 4.72 11.1 1.1 1.81 1.36 4.1 3 5.63-1.7-1.52-1.82-3.92-3-5.76a375.61 375.61 0 0 1-26.06-84.22c-3.55-19.38-6-38.93-6.15-58.66-.14-14.36-.44-28.75 1-43.07a409 409 0 0 1 11.69-63.8 379.08 379.08 0 0 1 55.43-119.95c.34-.49.78-.91 1.12-1.39 5.17-8.59 11.64-16.23 18-23.93 9.47-11.56 20-22.21 30.66-32.65a383.88 383.88 0 0 1 163-93.22c1.14-.32 2.24-.81 3.46-.41.16.24.2.47.26.73z" transform="translate(-2299 -3716.94)"/><path d="M2930.44 4098.13c19.09 10.85 35 25.33 48.76 42.34 6.75 8.37 12.93 17.15 17.64 26.88a2.14 2.14 0 0 0-.46 2.43c4.77 13.2 10.88 26 12.5 40.18a96.61 96.61 0 0 0 3 13.58c6.74 25.66 5.48 51-2.68 76.12-2.64 8.12-5.58 16.12-10.08 23.46-2.2 3.61-3.11 7.78-4.52 11.72-4.3 11.91-9.77 23.2-17.94 33-1.23 1.46 1.44 1.26.36 2.1-21.48 26-47.94 44.83-80 55.64-.25.18-.71.41-.78.3-.89-1.25-2-1.15-3.42-1.06a123 123 0 0 0-26.34 5.08c-9 2.59-18.3 2.9-27.51 4-5 .58-9.9-.35-14.76-.95-18.07-2.23-36.51-3.17-52.75-13-2.68-1.63-5.58-3-7.92-5.07-5.18-4.69-11.25-7.88-17.48-10.85-23.72-11.31-41.48-29-55.22-51.13-7.11-11.46-14.59-22.77-18.62-35.73-5.24-16.84-11.2-33.5-13.4-51.17-2.48-20 .14-39.35 6-58.44 1-3.36 4.11-5 5.54-8.05a118.64 118.64 0 0 0 6.7-18c7.28-25.13 21.25-45.94 41-63.15a146.65 146.65 0 0 1 28.88-19.63c.82-.4 1.67-.77 2.52-1.12a33.13 33.13 0 0 0 3.19-1.35c9.35-3.6 18-9 27.74-11.49 11-2.82 22-5.66 33-8.62 1.84-.5 3.75-.74 5.61 1.07-3.3 2.31-7 2-9.78 3.06 6.31-.82 12.61-3.73 19.54-4.22 10.79-.77 21.5-1 32.19.77a36.07 36.07 0 0 0 11.11.61c9.47 2.74 18.72 6.07 27.3 11 2.95 1.7 6.29 1.89 9.44 2.76 6.53 1.79 13 3.92 18.76 7.31 1.84 1 1.94-1.44 2.88-.38z" transform="translate(-2299 -3716.94)"/><path class="cls-5" d="M2623.53 4151.94a370.56 370.56 0 0 1 72.16-84.28 380.59 380.59 0 0 1 103.84-64.1 381.74 381.74 0 0 1 163-28.32c46.54 2.21 91.41 12.2 134.19 30.94a383.87 383.87 0 0 1 123.74 86.23A379.11 379.11 0 0 1 3317 4439a2.92 2.92 0 0 0 .71 2.53c3.88-7.51 7.94-14.93 11.6-22.54a380.16 380.16 0 0 0 32.11-100.99 393.73 393.73 0 0 0 5-45 380.55 380.55 0 0 0-23-152.29 388.2 388.2 0 0 0-31.75-65.8c-.69-1.15-1.29-2.35-1.93-3.53a1.15 1.15 0 0 1 1.52-.79 345.46 345.46 0 0 1 40.35 87.81q47.85 162.09-35.39 309.43a92.75 92.75 0 0 1-5.18 8.38c2.28-10.46 5.11-20.74 6.85-31.26 22-133.55-14.67-248.43-111.41-343-56.13-54.89-124.09-87.64-201.73-100.42-149.11-24.55-301.24 44.55-380.65 173.2-1.87 3-3.39 6.3-5.89 8.91a1.62 1.62 0 0 1-1.39-1.2 16.61 16.61 0 0 1 6.71-10.5z" transform="translate(-2299 -3716.94)"/><path class="cls-6" d="M2747.75 4099.15c-7.61 5-15.66 9.16-22.83 14.86-18.1 14.4-32.26 31.74-41.37 53.1-3.05 7.14-5 14.6-7.23 22-1.68 5.43-3.6 11.52-8.64 15.58-1.85 1.48-1.95 4.27-2.61 6.53-3.35 11.62-6.05 23.48-6.1 35.53 0 11.55.32 23.37 3.82 34.5 4.12 13.08 6.65 26.66 12.07 39.34a200.48 200.48 0 0 0 33.91 53.91c11.23 12.77 24.8 22.22 40 29.55a73.55 73.55 0 0 1 13.69 8.37c12.61 9.86 27.09 15.11 43.14 16.89 10.48 1.17 20.92 3.44 31.46 3.23 12.64-.25 25.3-1.74 37.29-6.08 5.79-2.1 11.8-1.42 17.6-2.69a53.45 53.45 0 0 1 6-.67c1.06 1.41-2.74.81-.86 2.47-16.89 6.62-34.52 9.61-52.54 10.25-92.86 3.28-171.38-60.56-187.3-152.16-12.72-73.15 23-149.35 87.51-186.57a10.67 10.67 0 0 1 1.2-.53c1.11.49 2.42.87 1.79 2.59z" transform="translate(-2299 -3716.94)"/><path class="cls-7" d="M2774.67 4779c9.5 1 19 2.18 28.49 2.85 14.3 1 28.59 2.35 43 .83 6.68-.71 13.41-.36 20.14-.94a380.29 380.29 0 0 0 342.54-315.65c2.85-16.77 4.11-33.72 5-50.75a338 338 0 0 0-1.52-49.23 371.53 371.53 0 0 0-21.42-93.59c-.31-.83-.49-1.71-.73-2.57-.19-5.19-3.32-9.38-4.8-14.14-.49-1.59-2.05-3.09-.55-4.92 2.05.47 2 2.43 2.63 3.85 24.5 59.08 34.25 120.47 28.08 184.19-7.79 80.49-37.54 152-90.45 213.15-63.6 73.54-144.06 116.84-240.35 130.48a377.29 377.29 0 0 1-85.63 1.89c-5.45-.47-10.94-.48-16.26-2-1.62-2-3.85.39-5.59-.78l-.37.06-.34-.15c.67-1.82-2.23-1.07-1.87-2.58z" transform="translate(-2299 -3716.94)"/><path class="cls-8" d="m3311.28 4050.64-1.52.79a389.35 389.35 0 0 0-64.58-78.2c-11.29-10.48-23.4-19.95-35.59-29.32-.09-.46.09-.66.56-.62 13.94 9.14 26.65 19.84 38.87 31.11 21.88 20.17 41.57 42.27 58.06 67.13a2.83 2.83 0 0 0 1.3 1.12c-6.28-11.43-13.66-22.16-21-33 7.71 8.36 14.11 17.7 20.76 27.37-3.61-37.05-54.55-120.74-101.1-166-48-46.59-104.63-77.89-169.25-94.65s-129.46-16-194.16.69a266.21 266.21 0 0 1 40.92-9.62 446.35 446.35 0 0 1 78.74-5.48c1.9 0 3.91-.47 5.67.74-.86.88-1.94.46-2.94.43 14 .6 28 2 41.89 3.79 1.67.21 3.24.49 4.3 2a342.91 342.91 0 0 1 84.64 25.88c108.71 49.71 180.12 132.2 215.26 246.29.87 2.85 1.67 5.72 2.53 8.65-2.59-1.74-2.73-1.66-3.36.9z" transform="translate(-2299 -3716.94)"/><path class="cls-9" d="M2318.79 4138.63c-3.79 14.58-7.68 29.13-10.2 44a422.14 422.14 0 0 0-5.14 44.44c-.54 8.67-.82 17.33-.73 26a381.53 381.53 0 0 0 79.66 229.71 372.21 372.21 0 0 0 93 85.64c1.25.81 2.48 1.66 3.7 2.52.17.12.17.46.55 1.54a381.2 381.2 0 0 1-63.56-48.78 396.26 396.26 0 0 1-51.86-59.81c6.93 12.44 15.24 23.95 23.14 35.87-2.09-2.52-4.31-4.94-6.25-7.56-6.33-8.51-13.05-16.75-18.54-25.86-.28-.47-.7-1.09-1.4-.41-1.92.08-1.32-1.34-1.35-2.33 0-1.22.57-2.67-1.31-3.09-1.58-2.93-5.32-5.26-2.42-9.48.34-.48-.81-2.09-1.42-3.09a378.59 378.59 0 0 1-54.79-181.53v-28.94a397.13 397.13 0 0 1 17.38-103c.22-.71.54-1.39.81-2.08 2.05.08 1.34 1.55 1.07 2.49-.42 1.28-1.13 2.43-.34 3.75z" transform="translate(-2299 -3716.94)"/><path class="cls-7" d="M2857.39 4715c-8 4.12-16.66 6.31-25.16 8.95a366 366 0 0 1-56.67 12.38q-15.7 2.28-31.63 3c-10.15.48-20.31 1.19-30.48.76-20.71-.88-41.39-2.14-61.73-6.55-1.32-.29-2.57-.95-3.73.3-2.73 2.32-5.6-.76-8.37.2-2.06-4.08-6.24-3.93-9.84-4.9-75.33-20.16-138.52-59.93-190.37-117.95a340.6 340.6 0 0 1-36.88-49.1c-.22-1.44.58-.9 1.23-.64.93.36.75 2.11 2.24 1.76 6.26 8.53 12.37 17.17 18.82 25.56a384.67 384.67 0 0 0 66.31 67.24 366.8 366.8 0 0 0 71.8 44.75 393.94 393.94 0 0 0 97.81 31.36c29.14 5.31 58.54 6.61 88 5.11a363.4 363.4 0 0 0 103.53-20.88c1.67-.59 3.44-.89 5.17-1.32z" transform="translate(-2299 -3716.94)"/><path d="M3184.77 4250.86c.89 5.18 3.6 9.71 5.31 14.59.53 1.52 1.65 3 0 4.47-10.37-26.67-22.76-52.34-38.66-76.21A386.5 386.5 0 0 0 3049 4089.27a380.5 380.5 0 0 0-127.72-57.43c8.4 5.74 16.12 10.86 23.68 16.22 5.24 3.72 10.3 7.69 15.33 11.69 1.2 1 2.84 1.79 3 3.69-14.13-10-28.21-20.14-43.35-28.66-1.54-.87-2.66-2.11-1.73-4 1.12-2.31 3.09-1.87 5.05-1.39a361.38 361.38 0 0 1 62.36 21.12c87.65 39.53 153.13 102 195 188.81a61.77 61.77 0 0 1 4.15 11.54z" transform="translate(-2299 -3716.94)" style="fill:#4b4b4b"/><path d="M2977.07 4369.9c-1.62-1.4-1.92 1.43-3.63.86a196.91 196.91 0 0 0 11.76-17.71c4.62-8.26 7.31-17.25 11-25.87 3.94-9.3 8.82-18.16 12-27.83 6-18 7.64-36.45 6.43-55.18-.7-10.69-4.82-20.86-6.32-31.42-2.14-15.11-8.13-28.91-13.1-43.08-.38-1.07-.61-2.19-.89-3.2 1.43-.87 1.06 2.09 2.52.88a157.56 157.56 0 0 1 19.24 54.11q13.58 80.82-36.6 145.84c-.72.93-1.6 1.7-2.41 2.6z" transform="translate(-2299 -3716.94)" style="fill:#171717"/><path class="cls-12" d="m2747.75 4099.15-1.8-2.62a71.49 71.49 0 0 1 18-9 25.84 25.84 0 0 0 9.55-3.85c19.24-7.78 39.34-11.15 60-11.56 6.25-.12 12.54-.5 18.74.87-2.22 1.14-4.47.2-7.31.67 3.68-.34 6.75.3 9.82-.52a13.66 13.66 0 0 1 6.43.77c-.78.75-1.77.44-2.69.46a60 60 0 0 1 15.23 2.41c.31.93-.38 1.29-1 1.69-6.29 1.29-12.3-1-18.45-1.46a142.58 142.58 0 0 0-23.74.07c-7.85.7-15.55 2.2-23.39 3.4l10.85-3.14c-5.16-.26-9.94 1.23-14.66 2.85-8.47 2.9-17.43 3.8-25.93 6.71s-16.33 8-25.14 10.47c-1.13-.39-2.23-.69-2.69.9a1.9 1.9 0 0 1-1.82.88z" transform="translate(-2299 -3716.94)"/><path class="cls-13" d="M2639.62 4734c2.74-2.31 5.6.44 8.37-.2l2.64.95c2.25.29 1.59 2.18 1.92 3.52a402.07 402.07 0 0 0 113.74 39.31c2.78.53 5.59.91 8.38 1.36.34 1.05 3.13.38 1.82 2.59-15.23-1.47-30-5.09-44.75-9a383.09 383.09 0 0 1-78.74-30.63c-4.61-2.39-7.85-7.08-13.38-7.9z" transform="translate(-2299 -3716.94)"/><path d="M3019.14 4384.05c-26.65 32.85-58.56 59.58-94.61 81.51-3 1.8-5.93 3.44-9.57 3.09 28.83-18.07 56.32-37.88 80.32-62.16a395.76 395.76 0 0 0 35.83-41.33 40.13 40.13 0 0 1 3.37-3.54c1.51 2.09-.41 3.46-1.32 4.67-4.58 5.99-8.87 12.22-14.02 17.76z" transform="translate(-2299 -3716.94)" style="fill:#b0b0b0"/><path d="M3059.62 4218.81a362 362 0 0 1-7.07 109.12c-.75 3.48-1.7 6.91-2.55 10.36-2.17 1.27-1.89 4.35-4.4 5.79 1.82-8.18 3.68-16.06 5.3-24a381.37 381.37 0 0 0 6.27-45.57c1.45-17.93.66-35.86.64-53.79 0-5.18-1.29-10.35-.71-15.6 2.2 2.6 1.54 5.89 2.12 8.87.31 1.58-.32 3.26.4 4.82z" transform="translate(-2299 -3716.94)" style="fill:silver"/><path class="cls-5" d="m2617.41 4163 .82.68c-3.93 6.31-4.06 13.65-5.25 20.61a371.3 371.3 0 0 0 4.77 148.24c.3 1.29.39 2.63.57 3.95-2.57-2-3-5.05-3.62-7.94a423.68 423.68 0 0 1-8.37-61.06c-2.09-33.61 1-66.74 7.56-99.64.21-1 .55-2 .83-3 .91-.63.93-2.54 2.69-1.84z" transform="translate(-2299 -3716.94)"/><path class="cls-16" d="M2406 4563.2c-.17 1.61-.74 1.2-1.48.32-.54-.63-.38-2.28-2-1.44-18.05-27.11-31.5-56.4-41.68-87.26a25.39 25.39 0 0 1-.6-2.58c.17-3.45-2.06-6.45-1.85-9.9l.07-1.81c.77.21-.06-2.92 1.82-.75s-.53 4.29.84 6.17a399.44 399.44 0 0 0 25 62.27c6.07 11.97 12.73 23.62 19.88 34.98z" transform="translate(-2299 -3716.94)"/><path class="cls-12" d="m2872.7 4078.45.91-.9c.95-1.33 2.55.13 3.58-.84a157.8 157.8 0 0 1 53.25 21.42c-1.32 1.45 1.52 1.15.79 2.6-7.78-2.92-15.22-7.09-23.48-8.6-9.69-1.78-17.38-8.19-26.64-10.92-2.81-.83-5.96-.79-8.41-2.76z" transform="translate(-2299 -3716.94)"/><path d="M3059.62 4218.81c-1.65-4.41-.67-9.31-2.52-13.68a300 300 0 0 0-5.59-32.6c-.53-2.41-.74-4.63.25-6.91 3.08 4.63 2.93 10.11 3.83 15.26 2.2 12.54 4.09 25.12 4.03 37.93z" transform="translate(-2299 -3716.94)" style="fill:#434343"/><path d="M3019.14 4384.05c4.22-5.84 8.49-11.64 12.64-17.54 1.06-1.51 2.72-2.76 2.7-4.89 3.28-4.73 6.53-9.47 9.83-14.18.86-1.23 1.83-2.4 3.61-2.13-.75 4.85-4.46 7.95-7 11.74a297.18 297.18 0 0 1-18.15 23.81c-1.01 1.22-1.93 2.7-3.63 3.19z" transform="translate(-2299 -3716.94)" style="fill:#3e3e3e"/><path d="M3012.25 3769c-16-2.55-32.1-4.9-49.48-5.55l6.23-.64c9.55.2 19 1.34 28.5 2.37 5.12-.62 10 .61 14.84 2 1.52.06 3.09-.08 4.4 1-1.41.73-3.18-.56-4.49.82z" transform="translate(-2299 -3716.94)" style="fill:#c4c4c4"/><path d="M2877.19 4076.71c-1 1.25-2.35.71-3.58.84-5.23-1.85-10.76-2.09-16.24-3 1.17-1 2.59-.17 3.77-.65a71.64 71.64 0 0 1 16.05 2.81zM2773.48 4083.66a10.6 10.6 0 0 1-9.55 3.85 38.39 38.39 0 0 1 9.55-3.85z" transform="translate(-2299 -3716.94)"/><path class="cls-9" d="M2358.4 4462.34c.92 3.24 2.92 6.28 1.85 9.9-.71-3.24-3.53-6.17-1.85-9.9z" transform="translate(-2299 -3716.94)"/><path d="M2854.71 4073.12c-3.21 1.72-6.54.52-9.84-.15h7.33z" transform="translate(-2299 -3716.94)"/><path class="cls-13" d="M2777.2 4781.65c1.43-.31 2.85-.66 4.28-.92s1.92.34 1.31 1.7c-1.91.11-3.79.22-5.59-.78z" transform="translate(-2299 -3716.94)"/><path class="cls-20" d="M2417.67 3923.71c-10.6 15.76-20.72 31.83-29.1 48.9a393.06 393.06 0 0 0-35.66 111.39 381.8 381.8 0 0 0-4.06 80.45 361 361 0 0 0 15.75 88.74 412.91 412.91 0 0 0 14.37 39 7.54 7.54 0 0 1 1 3.85c-5.7-9.36-8.86-19.79-12.57-30-9.35-25.75-15.2-52.36-18.74-79.45a338.68 338.68 0 0 1-3-39.26c-.1-8-.6-16.07.25-24.09 1.71-5.63.86-11.49 1.64-17.21 1.34-9.81 1.18-19.85 4.48-29.37 10-55.94 30.9-107.32 63.91-153.69.96-.48 1.39.03 1.73.74z" transform="translate(-2299 -3716.94)"/><path class="cls-2" d="m2417.67 3923.71-1.65-.77c8.42-13.14 18.47-25 28.94-36.49 51.2-56.19 113.66-94.09 186.82-114.48.38-.11.82 0 1.84.68l-1.93 1c-13.17 4.36-26.53 8.13-39.47 13.22a389.71 389.71 0 0 0-174.55 136.79z" transform="translate(-2299 -3716.94)"/><path d="M2318.79 4138.63c-2.46-1.8 1.49-4.41-.79-6.22a78.58 78.58 0 0 1 5.27-15.44 8 8 0 0 0 1.91-5.25 326.81 326.81 0 0 1 20.53-45.71 4.69 4.69 0 0 1 4.69-2.71c-12.23 23.29-23.35 47.05-30.91 72.33-.3.98-.49 2-.7 3z" transform="translate(-2299 -3716.94)" style="fill:#5b5b5b"/><path d="M2352.11 4076.63c-1.29 10.62-2.63 21.22-3.83 31.85-.41 3.69-.38 7.44-.76 11.14-.12 1.26.82 3.2-1.53 3.59a391.66 391.66 0 0 1 4.34-46.51 10.69 10.69 0 0 1 .75-2c.4.59.1 1.58 1.03 1.93z" transform="translate(-2299 -3716.94)" style="fill:#b9b9b9"/><path class="cls-9" d="M2325.18 4111.72c.46 3.12.2 3.84-1.91 5.25z" transform="translate(-2299 -3716.94)"/><path d="M2733.4 3818.82a372.76 372.76 0 0 1 133.51-54.1 395.84 395.84 0 0 1 82.58-7.08 80 80 0 0 1 15.12 1.48c-2.9 1.68-6.17-.26-9.12 1-10.76 0-21.54-.27-32.29.11-61.41 2.16-118.61 19.15-172 49.28-5.72 3.23-11.31 6.7-17 10.05-.82.44-.89-.06-.8-.74z" transform="translate(-2299 -3716.94)" style="fill:#696969"/><path class="cls-24" d="M2617.41 4163c-.95.53-1.33 1.9-2.69 1.82 1-8.47 3.7-16.53 6-24.69 5.75-20.62 13.79-40.37 22.85-59.73a6.76 6.76 0 0 1 3.22-3.59c-5.69 11.68-10.54 22.69-14.8 33.93a251.28 251.28 0 0 0-10.75 34.38 258.31 258.31 0 0 1 18.72-41.4c-2.77 6.68-5.27 13.5-8.39 20-3.42 7.12-4.9 14.78-6.94 22.27-.52 1.89-3.45 3.54-1.07 6-2 3.67-5.16 6.72-6.15 11.01z" transform="translate(-2299 -3716.94)"/><path d="M2632.56 3915.65a395.64 395.64 0 0 0-36.43 60.6 366.62 366.62 0 0 0-30.12 91.47 18.88 18.88 0 0 1-1.34 4.25c-.55-3.62.82-7 1.47-10.45s1.28-7 2.12-10.49a372.52 372.52 0 0 1 34.6-90.94 349 349 0 0 1 28.81-45.34c.56.03.65.54.89.9z" transform="translate(-2299 -3716.94)" style="fill:#333"/><path d="M2955.49 3760.07c2.9-1.67 6.13-.15 9.12-1 15.39 1.41 30.75 3 45.84 6.57 1 .22 1.73.37 1.89 1.48-5.08.23-9.94-1-14.84-2-5.56-2.51-11.63-2.19-17.46-3-8.13-1.04-16.36-1.38-24.55-2.05z" transform="translate(-2299 -3716.94)" style="fill:#8f8f8f"/><path d="M2652.55 4738.3c-2.42-.2 0-3-1.92-3.52 8.33 1.55 16.65 3.19 25 4.6s16.72 2.58 25.07 4.08c-7.41.52-14.69-.92-22-1.89-8.25-1.1-16.45-2.65-24.68-3.94-.43-.07-.97.44-1.47.67z" transform="translate(-2299 -3716.94)" style="fill:#373737"/><path d="M2501.33 3917.8c-8.19 17.09-16 34.28-22.87 51.89a244.81 244.81 0 0 1 22.87-51.89z" transform="translate(-2299 -3716.94)" style="fill:#2c2c2c"/><path d="m3171.28 3920-24.69-12.72a145.55 145.55 0 0 1 25.57 11.95 1.28 1.28 0 0 1-.88.77z" transform="translate(-2299 -3716.94)" style="fill:#3f3f3f"/><path d="M2661.15 3879.5c5.22-6.59 11.48-12.11 17.86-17.53l-17.31 18c-.43.13-.62.03-.55-.47z" transform="translate(-2299 -3716.94)" style="fill:#616161"/><path class="cls-31" d="M2695.34 3847.1c3.93-4.06 8.6-7.19 13-10.71l.79 1-13.25 10.29c-.48.04-.65-.14-.54-.58z" transform="translate(-2299 -3716.94)"/><path d="m2632.56 3915.65-.89-.9c2.5-3.26 4.56-6.86 8.29-9.17q-3.71 5.02-7.4 10.07z" transform="translate(-2299 -3716.94)" style="fill:#565656"/><path class="cls-2" d="M2515.63 3893.12c1.55-4 4.23-7.19 7-10.34a39.67 39.67 0 0 1-6.73 10.59z" transform="translate(-2299 -3716.94)"/><path class="cls-31" d="M2689.53 3853.07c-2.81 2.69-5.37 5.7-8.92 7.53a33.17 33.17 0 0 1 8.42-8.08c.45-.08.61.12.5.55z" transform="translate(-2299 -3716.94)"/><path d="M2653.05 3888.5c2.14-3.5 5.18-6.19 8.1-9l.55.51c-2.26 3.4-5.29 6.09-8.11 9-.41.07-.59-.08-.54-.51z" transform="translate(-2299 -3716.94)" style="fill:#606060"/><path class="cls-8" d="M3188.44 3930c3.8.59 6.53 3 9.09 5.7z" transform="translate(-2299 -3716.94)"/><path d="m2725.51 3825.23-8.48 6.23-.77-1 8.71-5.79c.46-.09.66.09.54.56z" transform="translate(-2299 -3716.94)" style="fill:#666"/><path class="cls-2" d="m2733.4 3818.82.83.69-8.72 5.72a7.7 7.7 0 0 0-.54-.6 46.45 46.45 0 0 1 8.43-5.81z" transform="translate(-2299 -3716.94)"/><path class="cls-24" d="m2653.24 4064.15-4.35 8.54c.11-3.52 1.95-6.23 4.35-8.54z" transform="translate(-2299 -3716.94)"/><path class="cls-8" d="m3209.59 3943.91-8.75-5.87c3.76.72 6.62 2.85 9.3 5.25z" transform="translate(-2299 -3716.94)"/><path d="m3171.28 3920 .88-.77 7 3.73c-3.16.24-5.37-1.73-7.88-2.96z" transform="translate(-2299 -3716.94)" style="fill:#4e4e4e"/><path class="cls-2" d="M2515.9 3893.37c-.69 2.65-2.65 4.54-4.16 6.7a13.29 13.29 0 0 1 3.89-6.94z" transform="translate(-2299 -3716.94)"/><path class="cls-16" d="M2653.59 3889c-1.36 2.48-3.43 4.34-5.41 6.29-.41.11-.58-.05-.51-.47 1.25-2.56 3.36-4.4 5.38-6.31z" transform="translate(-2299 -3716.94)"/><path d="M2689 3852.52a26 26 0 0 1 6.31-5.42c.16.19.33.37.5.55a28.69 28.69 0 0 1-6.31 5.42c-.13-.19-.3-.37-.5-.55z" transform="translate(-2299 -3716.94)" style="fill:#646464"/><path class="cls-20" d="M2380 4296c1.6 1.56 2.18 3.64 2.76 5.71a7.55 7.55 0 0 1-2.76-5.71z" transform="translate(-2299 -3716.94)"/><path class="cls-2" d="m2504.94 3910.4 2.89-5.18c.17 2.3-1.07 3.9-2.89 5.18z" transform="translate(-2299 -3716.94)"/><path class="cls-7" d="M2857.43 4715c1.78-1.69 4-2.15 6.32-2.33a11.92 11.92 0 0 1-6.36 2.28z" transform="translate(-2299 -3716.94)"/><path d="M2648.18 3895.28c-.9 2.1-2.66 3.46-4.37 4.89.36-2.45 2.31-3.76 3.87-5.36z" transform="translate(-2299 -3716.94)" style="fill:#5c5c5c"/><path class="cls-6" d="M2664.64 4221.49c-3.67 17.6-2.95 35.19-.9 52.8a100.73 100.73 0 0 1 .9-52.8zM2749.55 4098.25c-1.22-1-.67-1.8.35-2.33 1.41-.73 2.17-.05 2.34 1.43-.65 1.04-1.71.84-2.69.9z" transform="translate(-2299 -3716.94)"/></svg>