<svg id="Layer_1" data-name="Layer 1" xmlns="http://www.w3.org/2000/svg" xmlns:xlink="http://www.w3.org/1999/xlink" viewBox="0 0 550.37 845"><defs><style>.cls-1,.cls-4,.cls-9{fill:none;}.cls-2{fill:#cd2689;stroke:#cd2689;}.cls-2,.cls-3,.cls-4,.cls-5{stroke-miterlimit:10;}.cls-3,.cls-5,.cls-8{fill:#65beeb;}.cls-3,.cls-5,.cls-9{stroke:#65beeb;}.cls-4{stroke-width:40px;stroke:url(#linear-gradient);}.cls-5{stroke-width:0.75px;}.cls-6{clip-path:url(#clip-path);}.cls-7{fill:#010101;}</style><linearGradient id="linear-gradient" x1="606.12" y1="753.43" x2="-55.75" y2="91.57" gradientUnits="userSpaceOnUse"><stop offset="0" stop-color="#66cadb"/><stop offset="0.09" stop-color="#84c7dd"/><stop offset="0.2" stop-color="#9fc4de"/><stop offset="0.3" stop-color="#b2c2df"/><stop offset="0.41" stop-color="#bdc0e0"/><stop offset="0.52" stop-color="#c1c0e0"/><stop offset="1" stop-color="#e6bcd9"/></linearGradient><clipPath id="clip-path" transform="translate(-22.45 1.56)"><rect id="SVGID" class="cls-1" x="387.04" y="698.74" width="55.65" height="64.26"/></clipPath></defs><path class="cls-2" d="M210.7,140.94c0,1,0,1.93-.07,2.89s-.12,1.93-.21,2.89-.21,1.92-.35,2.87-.31,1.9-.5,2.85-.4,1.89-.63,2.82-.49,1.87-.77,2.79-.59,1.84-.91,2.75-.67,1.8-1,2.69-.76,1.77-1.17,2.65-.85,1.73-1.3,2.58-.93,1.69-1.43,2.52-1,1.64-1.55,2.44-1.09,1.59-1.66,2.37-1.17,1.53-1.78,2.28-1.24,1.47-1.89,2.19-1.31,1.41-2,2.09-1.38,1.35-2.09,2-1.44,1.28-2.19,1.89-1.51,1.21-2.28,1.78-1.56,1.13-2.37,1.67-1.61,1.05-2.44,1.55-1.66,1-2.52,1.42-1.71.89-2.58,1.3-1.75.81-2.64,1.17-1.79.72-2.7,1-1.82.63-2.75.91-1.85.54-2.78.77-1.88.45-2.83.64-1.89.35-2.85.49-1.91.26-2.87.36-1.92.16-2.88.21-1.93.07-2.89.07-1.93,0-2.89-.07-1.93-.12-2.89-.21-1.92-.22-2.87-.36-1.9-.3-2.85-.49-1.89-.4-2.82-.64-1.87-.49-2.79-.77-1.84-.58-2.74-.91-1.81-.67-2.7-1-1.78-.76-2.65-1.17-1.73-.84-2.58-1.3-1.69-.93-2.52-1.42-1.64-1-2.44-1.55-1.59-1.09-2.37-1.67-1.53-1.16-2.28-1.78-1.47-1.24-2.19-1.89-1.41-1.31-2.09-2-1.35-1.38-2-2.09-1.28-1.45-1.89-2.19-1.21-1.51-1.78-2.28-1.13-1.57-1.67-2.37-1-1.62-1.55-2.44-1-1.67-1.42-2.52-.89-1.71-1.3-2.58-.81-1.76-1.17-2.65-.72-1.79-1-2.69-.63-1.83-.91-2.75-.54-1.85-.77-2.79-.45-1.87-.64-2.82-.35-1.9-.49-2.85-.26-1.91-.36-2.87-.16-1.92-.21-2.89-.07-1.92-.07-2.89,0-1.93.07-2.89.12-1.92.21-2.88.22-1.92.36-2.87.3-1.91.49-2.85.4-1.89.64-2.82.49-1.87.77-2.79.58-1.84.91-2.75.67-1.81,1-2.7.76-1.77,1.17-2.64.84-1.73,1.3-2.58.93-1.69,1.42-2.52,1-1.64,1.55-2.44,1.09-1.6,1.67-2.37,1.16-1.53,1.78-2.28,1.24-1.48,1.89-2.19,1.31-1.41,2-2.09,1.38-1.35,2.09-2,1.45-1.28,2.19-1.89,1.51-1.2,2.28-1.78S118.24,92.48,119,92s1.62-1,2.44-1.55,1.67-1,2.52-1.43,1.71-.88,2.58-1.3,1.76-.8,2.65-1.17,1.79-.71,2.7-1,1.82-.63,2.74-.91,1.85-.53,2.79-.77,1.88-.44,2.82-.63,1.9-.35,2.85-.5,1.91-.26,2.87-.35,1.92-.17,2.89-.21,1.92-.07,2.89-.07,1.93,0,2.89.07,1.92.12,2.88.21,1.92.21,2.87.35,1.91.31,2.85.5,1.89.4,2.83.63,1.86.49,2.78.77,1.84.59,2.75.91,1.81.67,2.7,1,1.77.76,2.64,1.17,1.73.85,2.58,1.3,1.69.93,2.52,1.43,1.64,1,2.44,1.55,1.6,1.09,2.37,1.66,1.53,1.17,2.28,1.78,1.48,1.24,2.19,1.89,1.41,1.31,2.09,2,1.35,1.38,2,2.09,1.28,1.45,1.89,2.19,1.2,1.51,1.78,2.28,1.13,1.56,1.66,2.37,1,1.61,1.55,2.44,1,1.66,1.43,2.52.88,1.71,1.3,2.58.8,1.75,1.17,2.64.71,1.79,1,2.7.63,1.83.91,2.75.53,1.85.77,2.79.44,1.87.63,2.82.35,1.89.5,2.85.26,1.91.35,2.87.17,1.92.21,2.88S210.7,140,210.7,140.94Z" transform="translate(-22.45 1.56)"/><rect class="cls-3" x="415.12" y="571.21" width="43.46" height="43.46"/><rect class="cls-3" x="327.92" y="571.21" width="43.46" height="43.46"/><path class="cls-2" d="M291.93,487.12l18.41-13.82-32.78-43.75L320.69,372H171.16V510.15h0l69-92.12S272.5,461.21,291.93,487.12Z" transform="translate(-22.45 1.56)"/><path class="cls-2" d="M93.6,336V546.77H498V336Zm330.61,174.2h-253V372H424.21Z" transform="translate(-22.45 1.56)"/><polygon class="cls-2" points="401.75 511.7 401.76 511.7 401.76 373.53 298.24 373.53 401.75 511.7"/><rect class="cls-4" x="20" y="20" width="510.37" height="805" rx="41.14"/><rect class="cls-5" x="71.38" y="244.93" width="361.39" height="38.15"/><rect class="cls-5" x="70.43" y="573.87" width="174.52" height="38.15"/><rect class="cls-5" x="215.24" y="104.07" width="224.51" height="38.15"/><path class="cls-3" d="M331.25,731.69c0,.51,0,1,0,1.55s-.07,1-.12,1.55-.11,1-.19,1.54-.16,1-.27,1.54-.21,1-.34,1.51-.26,1-.41,1.5-.31,1-.49,1.48-.36,1-.56,1.45-.41,1-.63,1.42-.45.93-.7,1.39-.5.91-.76,1.36-.55.88-.84,1.31-.58.85-.89,1.27-.63.83-1,1.23-.67.79-1,1.17-.71.76-1.08,1.13-.74.72-1.12,1.07-.78.69-1.18,1-.81.65-1.23,1-.84.6-1.27.89-.87.57-1.31.83-.9.53-1.36.77-.92.48-1.38.7-.95.43-1.43.63-1,.38-1.45.56-1,.34-1.47.49-1,.29-1.5.41-1,.24-1.52.34-1,.19-1.53.27-1,.14-1.55.19-1,.09-1.55.11-1,0-1.55,0-1,0-1.56,0-1-.06-1.55-.11-1-.12-1.54-.19-1-.17-1.53-.27-1-.21-1.52-.34-1-.26-1.5-.41-1-.32-1.48-.49-1-.36-1.45-.56-.95-.41-1.42-.63-.93-.46-1.39-.7-.91-.5-1.35-.77-.88-.54-1.32-.83-.85-.59-1.27-.89-.82-.63-1.22-1-.8-.67-1.18-1-.76-.7-1.13-1.07-.72-.74-1.07-1.13-.69-.77-1-1.17-.64-.81-.95-1.23-.61-.84-.9-1.27-.56-.87-.83-1.31-.52-.9-.77-1.36-.47-.92-.69-1.39-.44-.94-.64-1.42-.38-1-.56-1.45-.33-1-.48-1.48-.29-1-.42-1.5-.24-1-.34-1.51-.19-1-.26-1.54-.14-1-.19-1.54-.09-1-.12-1.55,0-1,0-1.55,0-1,0-1.56.06-1,.12-1.55.11-1,.19-1.54.16-1,.26-1.54.22-1,.34-1.51.27-1,.42-1.5.31-1,.48-1.48.37-1,.56-1.45.41-.95.64-1.42.45-.93.69-1.39.5-.91.77-1.35.54-.89.83-1.32.59-.85.9-1.27.63-.82.95-1.23.67-.79,1-1.17.71-.76,1.07-1.13.75-.72,1.13-1.07.78-.69,1.18-1,.81-.65,1.22-1,.84-.61,1.27-.9.87-.57,1.32-.83.89-.52,1.35-.77.92-.48,1.39-.7.94-.43,1.42-.63,1-.38,1.45-.56,1-.34,1.48-.49,1-.28,1.5-.41,1-.24,1.52-.34,1-.19,1.53-.27,1-.14,1.54-.19,1-.09,1.55-.11,1,0,1.56,0,1,0,1.55,0,1,.06,1.55.11,1,.12,1.55.19,1,.17,1.53.27,1,.21,1.52.34,1,.26,1.5.41,1,.32,1.47.49,1,.36,1.45.56,1,.41,1.43.63.93.46,1.38.7.91.5,1.36.77.88.54,1.31.83.86.59,1.27.9.83.62,1.23,1,.79.67,1.18,1,.76.7,1.12,1.07.73.74,1.08,1.13.68.77,1,1.17.65.81,1,1.23.61.84.89,1.27.57.87.84,1.32.52.89.76,1.35.48.92.7,1.39.43.94.63,1.42.39,1,.56,1.45.34,1,.49,1.48.29,1,.41,1.5.24,1,.34,1.51.19,1,.27,1.54.14,1,.19,1.54.09,1,.12,1.55S331.25,731.17,331.25,731.69Z" transform="translate(-22.45 1.56)"/><rect class="cls-3" x="130.14" y="701.56" width="63.37" height="63.37"/><g class="cls-6"><path class="cls-7" d="M442.68,763,387,730.87l55.64-32.13Z" transform="translate(-22.45 1.56)"/></g><g class="cls-6"><path class="cls-8" d="M442.68,763,387,730.87l55.64-32.13Z" transform="translate(-22.45 1.56)"/></g><g class="cls-6"><path class="cls-9" d="M442.68,763,387,730.87l55.64-32.13Z" transform="translate(-22.45 1.56)"/></g></svg>